<?xml version="1.0" encoding="UTF-8"?>
<svg xmlns="http://www.w3.org/2000/svg" viewBox="0 0 55.44 33.34">
  <g>
    <path d="M7.3 18.5 C7 17 5.6 16.3 4.5 16.3 C2.7 16.3 1.5 17.8 1.5 19.5 C1.5 22 4.3 24 7.3 26.4 C10.3 24 13.1 22 13.1 19.5 C13.1 17.8 11.9 16.3 10.1 16.3 C9 16.3 7.6 17 7.3 18.5 Z" fill="#ff4da1"/>
    <path d="M48.14 18.5 C47.84 17 46.44 16.3 45.34 16.3 C43.54 16.3 42.34 17.8 42.34 19.5 C42.34 22 45.14 24 48.14 26.4 C51.14 24 53.94 22 53.94 19.5 C53.94 17.8 52.74 16.3 50.94 16.3 C49.84 16.3 48.44 17 48.14 18.5 Z" fill="#ff4da1"/>
    <!-- Love mouth: filled smile arc -->
    <path d="M23.2 24.7 Q27.72 30 32.24 24.7 L32.24 27.2 Q27.72 32.5 23.2 27.2 Z" fill="#fff"/>
  </g>
</svg>
